<svg style="position: absolute; width: 0; height: 0; overflow: hidden;" version="1.1" xmlns="http://www.w3.org/2000/svg" xmlns:xlink="http://www.w3.org/1999/xlink">
<defs>
<symbol id="and-icon" viewBox="0 0 32 32">
<path d="M25.132 25.387c1.134-1.411 2.15-3.004 2.984-4.703l0.067-0.151c0.806-1.593 1.527-3.461 2.061-5.406l0.050-0.216h-6.784c-0.646 2.439-1.544 4.575-2.692 6.547l0.067-0.125-6.059-5.91q3.285-1.899 4.758-4c0.92-1.276 1.472-2.871 1.472-4.595 0-0.016-0-0.032-0-0.048v0.002c0.002-0.056 0.003-0.121 0.003-0.186 0-1.938-0.929-3.659-2.366-4.742l-0.015-0.011q-2.379-1.845-6.347-1.845-4.16 0-6.646 1.984c-1.519 1.174-2.488 2.997-2.488 5.047 0 0.063 0.001 0.126 0.003 0.189l-0-0.009c-0 0.029-0.001 0.062-0.001 0.096 0 1.287 0.267 2.512 0.749 3.622l-0.023-0.059c0.629 1.346 1.407 2.503 2.335 3.521l-0.010-0.011q-3.136 1.792-4.427 3.851c-0.813 1.344-1.295 2.968-1.295 4.704 0 0.098 0.002 0.195 0.005 0.292l-0-0.014q0 4.075 3.051 6.464t8.256 2.39c0.059 0.001 0.129 0.001 0.198 0.001 3.376 0 6.504-1.063 9.068-2.872l-0.050 0.033 2.453 2.411h8.045zM8.096 20.223c0.553-0.758 1.198-1.406 1.928-1.945l0.024-0.017 7.083 7.040c-1.346 0.818-2.974 1.302-4.714 1.302-0.045 0-0.091-0-0.136-0.001l0.007 0c-0.070 0.003-0.152 0.005-0.234 0.005-1.242 0-2.389-0.41-3.311-1.103l0.014 0.010c-0.842-0.652-1.378-1.663-1.378-2.8 0-0.043 0.001-0.086 0.002-0.129l-0 0.006c-0-0.022-0.001-0.048-0.001-0.074 0-0.858 0.268-1.653 0.724-2.307l-0.009 0.013zM14.059 9.778c-0.816 0.774-1.742 1.444-2.748 1.983l-0.068 0.033q-2.027-2.261-2.027-4.139c-0.003-0.041-0.004-0.090-0.004-0.139 0-0.719 0.319-1.364 0.822-1.801l0.003-0.003c0.565-0.43 1.281-0.688 2.057-0.688 0.068 0 0.136 0.002 0.203 0.006l-0.009-0c0.038-0.002 0.083-0.003 0.128-0.003 0.705 0 1.353 0.246 1.862 0.658l-0.006-0.004c0.473 0.408 0.77 1.008 0.77 1.678 0 0.037-0.001 0.073-0.003 0.109l0-0.005c0 0.004 0 0.008 0 0.013 0 0.904-0.376 1.72-0.98 2.301l-0.001 0.001z"></path>
</symbol>
<symbol id="arabic-icon" viewBox="0 0 32 32">
<path d="M15.815 32.011c-0.059 0.001-0.129 0.001-0.2 0.001-8.84 0-16.006-7.166-16.006-16.006s7.166-16.006 16.006-16.006c8.84 0 16.006 7.166 16.006 16.006 0 0 0 0 0 0.001v-0c0 0.029 0 0.063 0 0.097 0 8.75-7.065 15.85-15.801 15.908l-0.005 0zM27.272 23.838c1.307-1.926 2.154-4.262 2.334-6.782l0.003-0.045h-7.909c-0.044 1.946-0.223 3.814-0.527 5.639l0.032-0.23c2.294 0.325 4.342 0.821 6.309 1.489l-0.242-0.071zM11.908 17.011c0.047 1.858 0.23 3.637 0.541 5.372l-0.032-0.213c1.112-0.098 2.242-0.156 3.398-0.156s2.284 0.058 3.396 0.156c0.279-1.522 0.462-3.301 0.508-5.114l0.001-0.045h-7.812zM19.721 15.010c-0.047-1.858-0.23-3.637-0.541-5.372l0.032 0.213c-1.112 0.098-2.242 0.156-3.396 0.156s-2.286-0.058-3.398-0.156c-0.279 1.522-0.462 3.301-0.508 5.114l-0.001 0.045h7.812zM25.91 25.565c-1.43-0.475-3.148-0.885-4.913-1.152l-0.18-0.022c-0.451 2.006-1.004 3.736-1.69 5.398l0.080-0.218c2.666-0.703 4.942-2.105 6.694-3.999l0.008-0.009zM14.856 29.964c0.317 0.023 0.635 0.049 0.959 0.049s0.641-0.026 0.957-0.049c0.799-1.661 1.495-3.606 1.985-5.632l0.042-0.205c-0.982-0.086-1.978-0.138-2.985-0.138s-2.004 0.052-2.986 0.138c0.532 2.23 1.228 4.175 2.105 6.016l-0.078-0.182zM12.421 29.572c-0.606-1.443-1.16-3.173-1.568-4.959l-0.042-0.221c-1.944 0.29-3.662 0.699-5.322 1.239l0.229-0.065c1.762 1.897 4.038 3.295 6.606 3.971l0.096 0.022zM10.424 22.42c-0.272-1.595-0.451-3.463-0.495-5.363l-0.001-0.046h-7.909c0.183 2.565 1.030 4.901 2.37 6.876l-0.031-0.049c1.725-0.599 3.772-1.095 5.881-1.399l0.184-0.022zM4.359 8.18c-1.308 1.926-2.156 4.262-2.336 6.782l-0.003 0.045h7.909c0.044-1.946 0.223-3.814 0.527-5.639l-0.032 0.23c-2.293-0.326-4.34-0.823-6.307-1.493l0.242 0.072zM5.719 6.454c1.429 0.475 3.147 0.884 4.912 1.152l0.18 0.022c0.451-2.007 1.004-3.738 1.69-5.4l-0.080 0.218c-2.666 0.702-4.942 2.104-6.694 3.998l-0.008 0.009zM16.773 2.055c-0.317-0.023-0.634-0.049-0.957-0.049s-0.642 0.026-0.959 0.049c-0.799 1.661-1.495 3.606-1.985 5.632l-0.042 0.206c0.982 0.088 1.978 0.138 2.986 0.138s2.003-0.053 2.985-0.138c-0.532-2.233-1.228-4.18-2.105-6.023l0.078 0.182zM19.208 2.449c0.606 1.444 1.16 3.175 1.568 4.961l0.042 0.221c1.945-0.291 3.663-0.701 5.322-1.241l-0.23 0.065c-1.76-1.903-4.036-3.306-6.606-3.987l-0.096-0.022zM21.201 9.605c0.273 1.595 0.451 3.463 0.495 5.363l0.001 0.045h7.907c-0.183-2.565-1.030-4.9-2.368-6.876l0.031 0.049c-1.725 0.597-3.772 1.092-5.881 1.396l-0.184 0.022z"></path>
</symbol>
<symbol id="blog-icon" viewBox="0 0 32 32">
<path d="M27.487 32.011h-23.556c-2.172-0.015-3.926-1.779-3.926-3.952 0-0.009 0-0.017 0-0.026v0.001-23.866c-0-0.009-0-0.020-0-0.031 0-2.22 1.747-4.032 3.942-4.135l0.009-0h23.713c2.187 0.024 3.951 1.802 3.951 3.993 0 0.003 0 0.006 0 0.009v-0 24.007c-0.084 2.221-1.9 3.991-4.132 4h-0.001zM29.646 4.003c0-0.001 0-0.002 0-0.004 0-1.096-0.882-1.985-1.975-1.997h-23.714c-1.117 0.091-1.989 1.019-1.989 2.152 0 0.005 0 0.010 0 0.014v-0.001 23.866c-0 0.004-0 0.008-0 0.012 0 1.087 0.878 1.969 1.963 1.976h23.556c1.141-0.004 2.074-0.886 2.158-2.006l0-0.007v-24.006zM23.717 22.008h-15.808c-0.553 0-1-0.448-1-1s0.448-1 1-1v0h15.808c0.552 0 1 0.448 1 1s-0.448 1-1 1v0zM23.717 16.006h-15.808c-0.553 0-1-0.448-1-1s0.448-1 1-1v0h15.808c0.552 0 1 0.448 1 1s-0.448 1-1 1v0zM23.717 10.006h-15.808c-0.535-0.023-0.959-0.462-0.959-1s0.425-0.977 0.957-1l0.002-0h15.808c0.535 0.023 0.959 0.462 0.959 1s-0.425 0.977-0.957 1l-0.002 0z"></path>
</symbol>
<symbol id="email-icon" viewBox="0 0 32 32">
<path d="M28.326 28.851h-24.298c-0.006 0-0.013 0-0.020 0-2.22 0-4.021-1.795-4.030-4.014v-18.067c0.009-2.219 1.81-4.014 4.030-4.014 0.007 0 0.014 0 0.021 0h24.297c0.006-0 0.013-0 0.020-0 2.22 0 4.021 1.795 4.030 4.014v18.067c-0.009 2.219-1.81 4.014-4.030 4.014-0.007 0-0.014-0-0.021-0h0.001zM5.043 4.764l11.134 9.6 11.134-9.6h-22.268zM30.356 6.771c-0.003-0.579-0.253-1.098-0.649-1.46l-0.002-0.001-13.528 11.498-13.528-11.498c-0.394 0.362-0.64 0.88-0.64 1.456 0 0.002 0 0.004 0 0.006v-0 18.066c0.004 1.109 0.904 2.007 2.014 2.007 0.002 0 0.004 0 0.006 0h24.298c0.002 0 0.005 0 0.008 0 1.112 0 2.014-0.897 2.023-2.006v-18.067z"></path>
</symbol>
<symbol id="facebook-icon" viewBox="0 0 32 32">
<path d="M29.248 32h-26.801c-0.023 0.001-0.050 0.001-0.078 0.001-1.304 0-2.36-1.057-2.36-2.36 0-0.001 0-0.002 0-0.003v0-27.17c-0-0.005-0-0.012-0-0.018 0-1.349 1.090-2.443 2.438-2.45h26.801c1.348 0.007 2.438 1.101 2.438 2.45 0 0.006-0 0.013-0 0.019v-0.001 27.17c0 0.001 0 0.002 0 0.003 0 1.304-1.057 2.36-2.36 2.36-0.027 0-0.055-0-0.082-0.001l0.004 0zM13.506 6.171c-0.091-0.003-0.197-0.005-0.304-0.005-1.26 0-2.459 0.26-3.547 0.728l0.058-0.022c-0.863 0.453-1.546 1.151-1.969 2l-0.012 0.026c-0.343 0.804-0.542 1.74-0.542 2.723 0 0.152 0.005 0.303 0.014 0.452l-0.001-0.020v1.432h-2.37v3.749h2.37v12.45h5.067v-12.45h3.16l0.875-3.749h-4.035v-1.341c-0.042-0.149-0.066-0.32-0.066-0.496 0-1.052 0.853-1.905 1.905-1.905 0.136 0 0.269 0.014 0.397 0.041l-0.012-0.002c0.819 0.076 1.556 0.373 2.166 0.831l-0.011-0.008 0.923-3.535c-1.194-0.466-2.576-0.786-4.017-0.896l-0.049-0.003z"></path>
</symbol>
<symbol id="footer-icon" viewBox="0 0 32 32">
<path d="M28 29h-24c-2.209 0-4-1.791-4-4v0-18c0-2.209 1.791-4 4-4v0h24c2.209 0 4 1.791 4 4v0 18c0 2.209-1.791 4-4 4v0zM30 7c-0.003-1.103-0.897-1.997-2-2h-24c-1.103 0.003-1.997 0.897-2 2v18c0.003 1.103 0.897 1.997 2 2h24c1.103-0.003 1.997-0.897 2-2v-18zM26 16h-4c-1.103-0.003-1.997-0.897-2-2v-4c0.003-1.103 0.897-1.997 2-2h4c1.103 0.003 1.997 0.897 2 2v4c-0.003 1.103-0.897 1.997-2 2h-0zM26 11c0-0.552-0.448-1-1-1v0h-2c-0.552 0-1 0.448-1 1v0 2c0 0.552 0.448 1 1 1v0h2c0.552 0 1-0.448 1-1v0-2zM17 24h-12c-0.552 0-1-0.448-1-1s0.448-1 1-1v0h12c0.552 0 1 0.448 1 1s-0.448 1-1 1v0zM17 20h-12c-0.552 0-1-0.448-1-1s0.448-1 1-1v0h12c0.552 0 1 0.448 1 1s-0.448 1-1 1v0z"></path>
</symbol>
<symbol id="google-icon" viewBox="0 0 32 32">
<path d="M27.478 9.197v5.023h-2.035v-5.023h-5.087v-2.059h5.087v-5.023h2.035v5.023h5.087v2.059h-5.087zM13.408 4.104c1.714 0.898 2.864 2.664 2.864 4.699 0 0.035-0 0.071-0.001 0.106l0-0.005c-0.115 1.813-1.081 3.379-2.499 4.314l-0.021 0.013c-1.391 1.071-1.649 1.53-1.649 2.435 0 0.779 1.485 2.115 2.259 2.657 1.779 1.036 2.956 2.935 2.956 5.109 0 0.156-0.006 0.31-0.018 0.463l0.001-0.020c0 3.075-2.94 6.525-8.374 6.525-4.769 0-8.92-2.31-8.92-5.398 0-3.13 3.797-6.15 8.565-6.15 0.52 0 0.996-0.014 1.489-0.014-0.678-0.583-1.119-1.425-1.168-2.371l-0-0.008c0.018-0.594 0.177-1.148 0.445-1.632l-0.009 0.018c-0.079 0.003-0.171 0.005-0.264 0.005-0.187 0-0.373-0.007-0.556-0.020l0.025 0.001c-0.083 0.004-0.181 0.006-0.278 0.006-3.458 0-6.261-2.803-6.261-6.261 0-0.017 0-0.034 0-0.051l-0 0.003c0-3.353 3.624-6.442 7.474-6.442h8.586l-1.921 2.017h-2.723zM9.482 19.659c-3.296-0.042-6.248 1.99-6.248 4.438 0 2.49 2.381 4.299 5.677 4.299 4.633 0 6.248-1.683 6.248-4.174-0.001-0.316-0.039-0.623-0.111-0.917l0.005 0.027c-0.362-1.405-1.645-2.101-3.435-3.339-0.637-0.212-1.37-0.334-2.131-0.334-0.002 0-0.003 0-0.005 0h0zM13.185 8.946c-0.383-2.894-2.581-5.203-4.793-5.273s-3.695 2.143-3.313 5.037 2.483 5.273 4.697 5.343 3.79-2.226 3.409-5.106z"></path>
</symbol>
<symbol id="heart-icon" viewBox="0 0 32 32">
<path d="M29.2 4.77c-1.738-1.705-4.121-2.757-6.751-2.757-2.48 0-4.742 0.936-6.45 2.475l0.009-0.008c-1.7-1.531-3.961-2.467-6.441-2.467-2.629 0-5.013 1.052-6.752 2.758l0.002-0.002c-1.732 1.705-2.806 4.074-2.806 6.695s1.073 4.99 2.804 6.694l0.001 0.001c1.069 1.060 11.053 10.93 11.053 10.93 0.55 0.542 1.305 0.877 2.139 0.877s1.589-0.335 2.139-0.878l-0 0 11.053-10.93c1.732-1.705 2.806-4.075 2.806-6.695s-1.073-4.99-2.804-6.694l-0.001-0.001zM27.773 16.75l-11.053 10.93c-0.183 0.181-0.435 0.293-0.712 0.293s-0.529-0.112-0.713-0.293l0 0-11.052-10.93c-1.366-1.346-2.213-3.217-2.213-5.285s0.846-3.939 2.212-5.284l0.001-0.001c1.37-1.344 3.249-2.174 5.322-2.174 1.96 0 3.746 0.742 5.094 1.96l-0.007-0.006 1.356 1.22 1.356-1.22c1.341-1.212 3.128-1.954 5.087-1.954 2.073 0 3.952 0.83 5.323 2.175l-0.001-0.001c1.365 1.346 2.211 3.216 2.211 5.283 0 2.069-0.847 3.941-2.214 5.286l-0.001 0.001zM9.259 7s0 0.010 0 0.010c-0 0-0.001 0-0.001 0-2.343 0-4.242 1.898-4.245 4.24v0c0 0.276 0.224 0.5 0.5 0.5s0.5-0.224 0.5-0.5v0 0c0.002-1.794 1.455-3.247 3.249-3.25h0c0.276 0 0.5-0.224 0.5-0.5v0c0 0 0-0 0-0 0-0.276-0.224-0.5-0.5-0.5-0.002 0-0.005 0-0.007 0h0z"></path>
</symbol>
<symbol id="heart-full-icon" viewBox="0 0 32 32">
<path d="M23 2c-2.404 0-4.331 0.863-6.030 2.563-0.001 0.001-0.002 0.002-0.003 0.003h-0.001l-0.966 1.217-0.966-1.143c-0.001-0.001-0.002-0.002-0.003-0.003h-0.001c-1.7-1.701-3.626-2.637-6.030-2.637s-4.664 0.936-6.364 2.636c-1.699 1.7-2.636 3.96-2.636 6.364 0 2.402 0.935 4.662 2.633 6.361l11.947 12.047c0.375 0.379 0.887 0.592 1.42 0.592s1.045-0.213 1.42-0.592l11.946-12.047c1.698-1.699 2.634-3.958 2.634-6.361s-0.937-4.664-2.636-6.364c-1.7-1.7-3.96-2.636-6.364-2.636v0z"></path>
</symbol>
<symbol id="instagram-icon" viewBox="0 0 32 32">
<path d="M27.742 32h-23.771c-2.191-0.012-3.962-1.791-3.962-3.983 0-0.003 0-0.006 0-0.010v0-24c-0-0.006-0-0.013-0-0.020 0-2.193 1.771-3.973 3.961-3.988h23.773c2.191 0.015 3.962 1.794 3.962 3.988 0 0.007-0 0.014-0 0.021v-0.001 24c0 0.003 0 0.006 0 0.009 0 2.192-1.771 3.971-3.961 3.983h-0.001zM15.857 9.798c-2.461 0.008-4.581 1.463-5.554 3.558l-0.016 0.038c-0.011 0.030-0.018 0.046-0.027 0.076-0.058 0.137-0.11 0.259-0.152 0.396-0.023 0.076-0.049 0.137-0.070 0.198-0.046 0.137-0.082 0.274-0.117 0.427-0.017 0.061-0.037 0.137-0.052 0.198-0.032 0.152-0.055 0.305-0.076 0.457 0 0.061-0.021 0.122-0.027 0.183-0.022 0.2-0.036 0.433-0.037 0.669v0.001c0 3.392 2.749 6.141 6.141 6.141s6.141-2.749 6.141-6.141v0c-0.001-0.237-0.014-0.47-0.039-0.7l0.003 0.029c0-0.061-0.020-0.122-0.027-0.183-0.021-0.152-0.044-0.305-0.076-0.457-0.015-0.061-0.035-0.137-0.052-0.198-0.035-0.152-0.072-0.29-0.117-0.427-0.021-0.061-0.047-0.122-0.070-0.198-0.050-0.137-0.101-0.259-0.152-0.396-0.009-0.030-0.017-0.046-0.026-0.076v0c-0.991-2.139-3.12-3.596-5.589-3.596-0.002 0-0.005 0-0.007 0h0zM28.139 5.196c0-0.002 0-0.005 0-0.008 0-0.877-0.709-1.588-1.584-1.592h-3.17c-0.876 0.004-1.585 0.716-1.585 1.592 0 0.003 0 0.005 0 0.008v-0 3.2c0 0.002-0 0.005-0 0.008 0 0.877 0.709 1.588 1.584 1.592h3.17c0.876-0.004 1.585-0.716 1.585-1.592 0-0.003 0-0.005-0-0.008v0-3.2zM28.139 13.394h-2.921c0.22 0.781 0.346 1.679 0.346 2.606 0 0 0 0 0 0v0c0 5.361-4.346 9.707-9.707 9.707s-9.707-4.346-9.707-9.707v0c0-0.927 0.126-1.824 0.363-2.676l-0.017 0.070h-2.921v13.41c0 0.002-0 0.005-0 0.008 0 0.877 0.709 1.588 1.584 1.592h21.395c0.876-0.004 1.585-0.716 1.585-1.592 0-0.003 0-0.005-0-0.008v0-13.41z"></path>
</symbol>
<symbol id="jobs-icon" viewBox="0 0 32 32">
<path d="M25.897 32.056h-19.657c-2.177-0.021-3.933-1.79-3.933-3.969 0-0.013 0-0.026 0-0.039v0.002-20.026c-0-0.010-0-0.023-0-0.035 0-2.18 1.756-3.949 3.931-3.971l0.002-0h2.95v-2.002h2.647c1.012-1.227 2.532-2.003 4.233-2.003s3.221 0.776 4.226 1.993l0.007 0.009h2.648v2.002h2.949c2.175 0.017 3.932 1.784 3.932 3.962 0 0.016-0 0.031-0 0.047l0-0.002v20.027c0 0.013 0 0.028 0 0.043 0 2.179-1.758 3.946-3.933 3.962h-0.001zM20.983 4.018h-2.193c-0.377-1.17-1.457-2.002-2.731-2.002s-2.353 0.832-2.725 1.982l-0.006 0.020h-2.184v4.006h9.83v-4.006zM27.863 8.024c0-0.006 0-0.014 0-0.021 0-1.089-0.878-1.972-1.965-1.981h-2.949v4.005h-13.758v-4.005h-2.949c-1.088 0.009-1.966 0.892-1.966 1.981 0 0.008 0 0.015 0 0.023v-0.001 20.027c-0 0.006-0 0.014-0 0.021 0 1.089 0.878 1.972 1.965 1.981h19.658c1.088-0.009 1.966-0.892 1.966-1.981 0-0.008-0-0.015-0-0.023v0.001-20.027zM22.949 26.050h-13.758c-0.553 0-1.001-0.448-1.001-1.001s0.448-1.001 1.001-1.001v0h13.762c0.535 0.022 0.961 0.462 0.961 1 0 0.54-0.427 0.98-0.962 1l-0.002 0zM22.949 21.042h-13.758c-0.553 0-1.001-0.448-1.001-1.001s0.448-1.001 1.001-1.001v0h13.762c0.552 0.001 1 0.449 1 1.001s-0.448 1.001-1.001 1.001c-0.001 0-0.001 0-0.002 0h0zM22.949 16.035h-13.758c-0.553 0-1.002-0.449-1.002-1.002s0.449-1.002 1.002-1.002v0h13.762c0.553 0.001 1 0.449 1 1.002s-0.449 1.002-1.002 1.002c-0.001 0-0.001 0-0.002 0h0z"></path>
</symbol>
<symbol id="linkedin-icon" viewBox="0 0 32 32">
<path d="M12 12h5.535v2.837h0.079c0.77-1.381 2.655-2.837 5.464-2.837 5.842 0 6.922 3.637 6.922 8.367v9.633h-5.769v-8.54c0-2.037-0.042-4.657-3.001-4.657-3.005 0-3.463 2.218-3.463 4.509v8.688h-5.767v-18z"></path>
<path d="M2 12h6v18h-6v-18z"></path>
<path d="M8 7c0 1.657-1.343 3-3 3s-3-1.343-3-3c0-1.657 1.343-3 3-3s3 1.343 3 3z"></path>
</symbol>
<symbol id="link-icon" viewBox="0 0 32 32">
<path d="M30.112 10.769l-4.452 4.466c-1.134 1.138-2.703 1.843-4.436 1.843-0.597 0-1.175-0.084-1.721-0.24l0.044 0.011 3.719-3.715c0.062-0.044 0.117-0.089 0.167-0.139l4.452-4.452c0.54-0.565 0.872-1.332 0.872-2.177 0-1.742-1.412-3.154-3.154-3.154-0.841 0-1.606 0.329-2.171 0.866l0.001-0.001-4.452 4.466-3.853 3.84c-0.134-0.487-0.212-1.045-0.212-1.622 0-1.74 0.703-3.316 1.841-4.458l4.452-4.452c1.15-1.203 2.767-1.952 4.56-1.952 3.481 0 6.303 2.822 6.303 6.303 0 1.796-0.751 3.417-1.957 4.565l-0.003 0.002zM11.79 22.483v0c-0.292 0.305-0.702 0.494-1.156 0.494-0.884 0-1.6-0.716-1.6-1.6 0-0.472 0.204-0.896 0.529-1.189l0.001-0.001 10.589-10.574c0.288-0.317 0.702-0.515 1.162-0.515 0.002 0 0.005 0 0.007 0h-0c0.002 0 0.004 0 0.006 0 0.881 0 1.596 0.714 1.596 1.596 0 0.001 0 0.003 0 0.004v-0c0 0.001 0 0.003 0 0.004 0 0.434-0.177 0.826-0.462 1.109l-0 0v0.014zM8.488 19.005l-4.452 4.452c-0.54 0.565-0.872 1.332-0.872 2.177 0 1.742 1.412 3.154 3.154 3.154 0.841 0 1.606-0.329 2.171-0.866l-0.001 0.001 4.452-4.466c0.031-0.029 0.059-0.061 0.082-0.095l0.001-0.002 3.769-3.757c0.138 0.492 0.217 1.057 0.217 1.64 0 1.739-0.704 3.313-1.842 4.454l0-0-4.452 4.466c-1.151 1.205-2.77 1.954-4.565 1.954-3.484 0-6.308-2.824-6.308-6.308 0-1.801 0.755-3.426 1.966-4.576l0.003-0.003 4.452-4.466c1.139-1.134 2.71-1.834 4.444-1.834 0.588 0 1.156 0.080 1.696 0.231l-0.044-0.011-3.836 3.826c-0.013 0.014-0.025 0.014-0.035 0.028z"></path>
</symbol>
<symbol id="location-icon" viewBox="0 0 32 32">
<path d="M15.991 32c-1.948 0.010-11.746-14.981-11.746-19.997-0.002-0.077-0.003-0.167-0.003-0.258 0-6.489 5.26-11.749 11.749-11.749s11.749 5.26 11.749 11.749c0 0.091-0.001 0.181-0.003 0.271l0-0.013c0 4.945-9.826 20.003-11.746 19.997zM15.991 2.005c-5.419 0.061-9.789 4.469-9.789 9.897 0 0.036 0 0.071 0.001 0.107l-0-0.005c0 4.181 8.16 17.006 9.788 16.998 1.6 0.008 9.788-12.873 9.788-16.998 0-0.031 0.001-0.069 0.001-0.106 0-5.428-4.37-9.835-9.783-9.897l-0.006-0zM15.991 17.002c-0.032 0.001-0.069 0.001-0.106 0.001-2.762 0-5-2.239-5-5s2.239-5 5-5c2.762 0 5 2.239 5 5v0c0 0.014 0 0.030 0 0.046 0 2.714-2.185 4.918-4.891 4.948l-0.003 0zM15.991 9.002c-0.019-0-0.041-0.001-0.064-0.001-1.657 0-3 1.343-3 3s1.343 3 3 3c1.657 0 3-1.343 3-3 0-0 0-0 0-0v0c0-0.010 0-0.021 0-0.033 0-1.629-1.311-2.951-2.935-2.97l-0.002-0z"></path>
</symbol>
<symbol id="phone-icon" viewBox="0 0 32 32">
<path d="M3.884 0.619l0-0c0.375-0.379 0.894-0.613 1.469-0.613s1.095 0.235 1.469 0.614l4.417 5.921c0.348 0.396 0.559 0.915 0.559 1.483s-0.211 1.087-0.556 1.481l-1.8 1.812 0.097 0.139c1.419 1.93 2.973 3.755 4.641 5.453l-0.004-0.004c1.938 1.921 4.008 3.708 6.349 5.458l1.741-1.75c0.39-0.351 0.906-0.564 1.471-0.564s1.082 0.213 1.469 0.562l5.88 4.444c0.413 0.359 0.673 0.889 0.673 1.479s-0.261 1.119-0.676 1.481l-2.939 2.962c-1.629 1.636-3.736 1.111-5.878 0l-0.285-0.158c-4.283-2.57-8.235-5.635-11.767-9.109l0.028 0.029c-3.449-3.626-6.513-7.623-9.3-12.233-0.843-2.335-1.617-4.287 0-5.923l2.939-2.962zM6.743 11.074l2.358-2.378c0.22-0.25 0.355-0.58 0.355-0.942s-0.135-0.692-0.356-0.944l0.001 0.002-2.813-3.77c-0.219-0.279-0.556-0.456-0.934-0.456s-0.715 0.177-0.932 0.453l-0.002 0.003-1.868 1.885c-0.74 0.695-0.524 2.316-0.137 3.096 2.608 4.491 5.53 8.374 8.853 11.873l-0.025-0.027c3.713 4.067 12.496 9.625 12.496 9.625 0.411 0.17 0.889 0.268 1.389 0.268 0.615 0 1.196-0.149 1.707-0.412l-0.021 0.010 1.868-1.885c0.221-0.25 0.356-0.58 0.356-0.942s-0.135-0.692-0.357-0.944l0.001 0.002-3.748-2.827c-0.246-0.222-0.574-0.358-0.934-0.358s-0.688 0.136-0.935 0.359l0.001-0.001-2.301 2.321c-0.547-0.385-9.204-6.118-14.022-14.011z"></path>
</symbol>
<symbol id="plus-icon" viewBox="0 0 32 32">
<path d="M29.913 18.093h-11.827v11.813c0 1.152-0.934 2.087-2.087 2.087s-2.087-0.934-2.087-2.087v-11.813h-11.827c-1.156 0-2.093-0.937-2.093-2.093s0.937-2.093 2.093-2.093h11.827v-11.813c0-1.152 0.934-2.087 2.087-2.087s2.087 0.934 2.087 2.087v0 11.813h11.827c1.156 0 2.093 0.937 2.093 2.093s-0.937 2.093-2.093 2.093v0z"></path>
</symbol>
<symbol id="search-icon" viewBox="0 0 26 28">
<path d="M18 13c0-3.859-3.141-7-7-7s-7 3.141-7 7 3.141 7 7 7 7-3.141 7-7zM26 26c0 1.094-0.906 2-2 2-0.531 0-1.047-0.219-1.406-0.594l-5.359-5.344c-1.828 1.266-4.016 1.937-6.234 1.937-6.078 0-11-4.922-11-11s4.922-11 11-11 11 4.922 11 11c0 2.219-0.672 4.406-1.937 6.234l5.359 5.359c0.359 0.359 0.578 0.875 0.578 1.406z"></path>
</symbol>
<symbol id="support-icon" viewBox="0 0 32 32">
<path d="M30.266 27.808l-9.079-6.197h-8.073v8.262c0 0.008 0 0.018 0 0.028 0 1.12-0.902 2.030-2.019 2.042h-3.028c-1.118-0.013-2.020-0.922-2.020-2.042 0-0.010 0-0.020 0-0.030l-0 0.002v-8.262c0.004-0.070 0.011-0.135 0.022-0.198l-0.001 0.010c-3.447-0.466-6.077-3.39-6.077-6.928 0-0.036 0-0.072 0.001-0.108l-0 0.005c0-4.563 3.616-7.228 8.075-7.228h13.12l9.084-6.195c1.118 0.013 2.020 0.922 2.020 2.042 0 0.010-0 0.020-0 0.030l0-0.002v22.703c0 0.007 0 0.015 0 0.023 0 1.122-0.905 2.033-2.025 2.042h-0.001zM8.055 28.841c-0 0.004-0 0.009-0 0.013 0 0.56 0.45 1.014 1.008 1.020h1.019c0.559-0.006 1.009-0.461 1.009-1.020 0-0.005-0-0.009-0-0.014v0.001-7.23h-3.027v7.228zM8.055 9.222c-2.071-0.068-6.057 0.6-6.057 5.163s4.051 5.163 6.057 5.163h8.073v-10.327h-8.073zM21.175 17.4v-8.179h-3.027v10.319h3.040v-2.146zM30.259 23.16v-20.141l-7.064 5.163v12.392l7.064 5.163v-2.577z"></path>
</symbol>
<symbol id="twitter-icon" viewBox="0 0 32 32">
<path d="M21.519 3.2c0.095-0.005 0.206-0.008 0.318-0.008 1.89 0 3.595 0.793 4.799 2.065l0.003 0.003c1.247-0.199 2.367-0.598 3.379-1.165l-0.051 0.026c0.269-0.141 0.538-0.294 0.808-0.448-0.409 1.25-1.139 2.3-2.094 3.089l-0.011 0.009c-0.207 0.194-0.441 0.364-0.694 0.503l-0.018 0.009v0.013c1.36-0.154 2.601-0.511 3.746-1.042l-0.075 0.031v0.013c-0.615 0.991-1.344 1.839-2.185 2.561l-0.015 0.012-1.012 0.806c0.010 0.227 0.015 0.493 0.015 0.76 0 1.229-0.115 2.431-0.335 3.596l0.019-0.12c-1.62 7.386-5.912 12.403-12.707 14.554-1.608 0.486-3.455 0.766-5.368 0.766-1.348 0-2.664-0.139-3.934-0.403l0.125 0.022c-1.479-0.361-2.75-0.795-3.969-1.327l0.155 0.060c-0.723-0.321-1.325-0.642-1.903-0.999l0.067 0.039c-0.189-0.115-0.384-0.23-0.57-0.358 0.441 0.069 0.949 0.108 1.466 0.108 0.214 0 0.426-0.007 0.636-0.020l-0.029 0.001c0.64-0.115 1.262-0.077 1.851-0.218 1.465-0.287 2.769-0.78 3.957-1.454l-0.064 0.034c0.672-0.321 1.25-0.71 1.763-1.171l-0.007 0.006c-0.694-0.003-1.358-0.134-1.968-0.371l0.037 0.013c-1.96-0.692-3.466-2.231-4.101-4.165l-0.013-0.047c0.355 0.072 0.763 0.114 1.181 0.114 0.611 0 1.201-0.088 1.758-0.253l-0.044 0.011c-0.806-0.114-1.526-0.418-2.132-0.867l0.013 0.009c-1.846-1.138-3.057-3.149-3.057-5.443 0-0.071 0.001-0.142 0.003-0.212l-0 0.010c0.221 0.115 0.443 0.218 0.664 0.32 0.388 0.159 0.845 0.293 1.318 0.378l0.042 0.006c0.186 0.068 0.401 0.108 0.626 0.108 0.092 0 0.182-0.007 0.27-0.019l-0.010 0.001h-0.031c-0.328-0.397-0.859-0.653-1.188-1.062-1.016-1.182-1.635-2.732-1.635-4.426 0-0.55 0.065-1.086 0.189-1.598l-0.009 0.046c0.18-0.649 0.418-1.214 0.716-1.74l-0.020 0.038c0.001-0 0.003-0 0.004-0 0.011 0 0.021 0.005 0.028 0.013l0 0c0.177 0.259 0.369 0.486 0.583 0.69l0.002 0.002c0.577 0.696 1.21 1.309 1.903 1.849l0.027 0.020c2.204 1.833 4.873 3.188 7.8 3.866l0.128 0.025c0.871 0.234 1.873 0.374 2.906 0.384l0.006 0c-0.115-0.445-0.18-0.956-0.18-1.483 0-0.57 0.077-1.122 0.221-1.645l-0.010 0.043c0.486-1.993 1.841-3.596 3.63-4.412l0.041-0.017c0.407-0.176 0.888-0.33 1.387-0.438l0.053-0.010c0.266-0.026 0.531-0.064 0.794-0.090z"></path>
</symbol>
<symbol id="divide-icon" viewBox="0 0 1686 32">
<path d="M0 32v-2.909s409.505-29.091 824.857-29.091c427.391 0 860.961 29.091 860.961 29.091v2.909s-433.673-29.091-861.108-29.091c-415.302 0-824.71 29.091-824.71 29.091z"></path>
</symbol>
</defs>
</svg>
